<svg width="736" height="135" viewBox="0 0 736 135" fill="none" xmlns="http://www.w3.org/2000/svg">
<g clip-path="url(#clip0_4152_8578)">
<path fill-rule="evenodd" clip-rule="evenodd" d="M0 120L35.64 122.5C75.735 125 147.015 130 222.75 115C298.485 100 369.765 65 445.5 50C521.235 35 592.515 40 668.25 57.5C743.985 75 815.265 105 855.36 120L891 135V0H855.36C815.265 0 743.985 0 668.25 0C592.515 0 521.235 0 445.5 0C369.765 0 298.485 0 222.75 0C147.015 0 75.735 0 35.64 0H0V120Z" fill="#E32750" fill-opacity="0.2"/>
<path fill-rule="evenodd" clip-rule="evenodd" d="M891 129.826L859.815 110.684C833.085 91.5412 770.715 53.2561 712.8 53.2561C654.885 53.2561 592.515 91.5412 534.6 87.7127C476.685 83.8842 414.315 37.9421 356.4 45.5991C298.485 53.2561 236.115 114.512 178.2 129.826C120.285 145.14 57.915 114.512 31.185 99.1982L0 83.8842V-8H31.185C57.915 -8 120.285 -8 178.2 -8C236.115 -8 298.485 -8 356.4 -8C414.315 -8 476.685 -8 534.6 -8C592.515 -8 654.885 -8 712.8 -8C770.715 -8 833.085 -8 859.815 -8H891V129.826Z" fill="#E32750" fill-opacity="0.2"/>
<path fill-rule="evenodd" clip-rule="evenodd" d="M0 61.5L35.64 68.3333C75.735 75.1667 147.015 88.8333 222.75 78.5833C298.485 68.3333 369.765 34.1667 445.5 47.8333C521.235 61.5 592.515 123 668.25 123C743.985 123 815.265 61.5 855.36 30.75L891 0H855.36C815.265 0 743.985 0 668.25 0C592.515 0 521.235 0 445.5 0C369.765 0 298.485 0 222.75 0C147.015 0 75.735 0 35.64 0H0V61.5Z" fill="#E32750" fill-opacity="0.2"/>
</g>
<defs>
<clipPath id="clip0_4152_8578">
<rect width="891" height="135" fill="white"/>
</clipPath>
</defs>
</svg>
